<?xml version="1.0" encoding="utf-8"?>
<!-- Generator: Adobe Illustrator 25.2.1, SVG Export Plug-In . SVG Version: 6.00 Build 0)  -->
<svg version="1.1" id="Layer_1" xmlns="http://www.w3.org/2000/svg" xmlns:xlink="http://www.w3.org/1999/xlink" x="0px" y="0px"
	 viewBox="0 0 225 52" style="enable-background:new 0 0 225 52;" xml:space="preserve">
<style type="text/css">
	.st0{fill:#2A2C2F;}
	.st1{fill:url(#SVGID_1_);}
	.st2{fill:url(#SVGID_2_);}
	.st3{fill:url(#SVGID_3_);}
	.st4{fill:#25A2E5;}
	.st5{fill:#027AD4;}
	.st6{fill:#54DAFF;}
</style>
<g>
	<path class="st0" d="M59.8,13.9h14.5V20h-4.2v20.6h-6.1V20h-4.1V13.9z"/>
	<path class="st0" d="M79.8,13.9H92v5.7h-6.2v4.9h5.4V30h-5.4v4.9h6.2v5.7H79.8V13.9z"/>
	<path class="st0" d="M98.6,13.9h6.1v20.5h4.8v6.2H98.6V13.9z"/>
	<path class="st0" d="M115.3,13.9h12.3v5.7h-6.2v4.9h5.4V30h-5.4v4.9h6.2v5.7h-12.3V13.9z"/>
	<path class="st0" d="M152.5,25.6v4.5c0,3.5-0.8,6.2-2.5,8.2c-1.7,2-4,3-6.9,3c-3.3,0-5.8-1.2-7.5-3.7c-1.8-2.4-2.7-5.9-2.7-10.5
		c0-4.6,0.9-8.1,2.7-10.4s4.4-3.6,7.8-3.6c3.8,0,6.6,2,8.3,6.1l-5.8,2.4c-0.5-0.9-0.9-1.5-1.3-1.9c-0.4-0.4-1-0.6-1.7-0.6
		c-1.2,0-2.1,0.6-2.6,1.9s-0.8,3.4-0.8,6.3c0,2.7,0.3,4.7,0.9,5.9c0.6,1.3,1.5,1.9,2.8,1.9c2,0,3.1-1.4,3.1-4.3h-2.8v-5.2H152.5z"/>
	<path class="st0" d="M158.7,13.9h7.1c2.9,0,5.1,0.7,6.8,2.2c1.7,1.5,2.5,3.5,2.5,6c0,1.3-0.3,2.5-0.9,3.8c-0.6,1.2-1.5,2.1-2.7,2.7
		l4.8,12.1h-6.4l-4.9-12.2h-0.1v12.2h-6.1V13.9z M164.7,19.1v6.3c2.7-0.1,4-1,4-2.8c0-1.2-0.3-2.1-0.9-2.7
		C167.2,19.4,166.2,19.1,164.7,19.1z"/>
	<path class="st0" d="M200,40.6h-6.3l-1-4.5h-6.4l-1.1,4.5H179l7.1-26.7h6.8L200,40.6z M191.5,31.3c-0.9-4-1.6-7.8-2-11.4h-0.1
		c-0.5,3.7-1.2,7.5-2,11.4H191.5z"/>
	<path class="st0" d="M204.8,13.9H217v5.7h-6.2v4.9h5.5V30h-5.5v10.6h-6.1V13.9z"/>
</g>
<linearGradient id="SVGID_1_" gradientUnits="userSpaceOnUse" x1="7.3559" y1="23.0492" x2="26.3559" y2="23.0492" gradientTransform="matrix(1 0 0 -1 0 54)">
	<stop  offset="0" style="stop-color:#1D59B3"/>
	<stop  offset="1" style="stop-color:#195BBC"/>
</linearGradient>
<path class="st1" d="M7.7,14.5c-0.2,0.4-0.3,0.8-0.3,1.3v20.2c0,1.1,0.6,2.1,1.6,2.7l15.5,8.2c0.6,0.3,1.2,0.5,1.9,0.5v-23L7.7,14.5
	z"/>
<linearGradient id="SVGID_2_" gradientUnits="userSpaceOnUse" x1="26.3559" y1="23.0492" x2="45.3559" y2="23.0492" gradientTransform="matrix(1 0 0 -1 0 54)">
	<stop  offset="0" style="stop-color:#11408A"/>
	<stop  offset="1" style="stop-color:#103F8F"/>
</linearGradient>
<path class="st2" d="M26.4,24.4v23c0.6,0,1.3-0.2,1.9-0.5l15.5-8.2c1-0.5,1.6-1.5,1.6-2.7V15.8c0-0.5-0.1-0.9-0.3-1.3L26.4,24.4z"/>
<linearGradient id="SVGID_3_" gradientUnits="userSpaceOnUse" x1="7.6629" y1="39.1296" x2="45.0489" y2="39.1296" gradientTransform="matrix(1 0 0 -1 0 54)">
	<stop  offset="0" style="stop-color:#3079D6"/>
	<stop  offset="1" style="stop-color:#297CD2"/>
</linearGradient>
<path class="st3" d="M26.4,24.4L45,14.5c-0.3-0.6-0.8-1.1-1.4-1.4L28.1,5.8c-1.1-0.5-2.3-0.5-3.4,0L9.1,13.1
	c-0.6,0.3-1.1,0.8-1.4,1.4L26.4,24.4z"/>
<path class="st4" d="M15.5,18.7c-0.1,0.2-0.2,0.5-0.2,0.8v11.7c0,0.6,0.4,1.2,0.9,1.5l9,4.7c0.3,0.2,0.7,0.3,1.1,0.3V24.4L15.5,18.7
	z"/>
<path class="st5" d="M26.4,24.4v13.3c0.4,0,0.7-0.1,1.1-0.3l9-4.7c0.6-0.3,0.9-0.9,0.9-1.5V19.4c0-0.3-0.1-0.5-0.2-0.8L26.4,24.4z"
	/>
<path class="st6" d="M26.4,24.4l10.8-5.7c-0.2-0.3-0.5-0.6-0.8-0.8l-9-4.3c-0.6-0.3-1.4-0.3-2,0l-9,4.3c-0.4,0.2-0.6,0.5-0.8,0.8
	L26.4,24.4z"/>
</svg>
