<?xml version="1.0" encoding="utf-8"?>
<!-- Generator: Adobe Illustrator 25.2.1, SVG Export Plug-In . SVG Version: 6.00 Build 0)  -->
<svg version="1.1" id="Layer_1" xmlns="http://www.w3.org/2000/svg" xmlns:xlink="http://www.w3.org/1999/xlink" x="0px" y="0px"
	 viewBox="0 0 225 52" style="enable-background:new 0 0 225 52;" xml:space="preserve">
<style type="text/css">
	.st0{fill:#FFFFFF;}
	.st1{fill:url(#SVGID_1_);}
	.st2{fill:url(#SVGID_2_);}
	.st3{fill:url(#SVGID_3_);}
	.st4{fill:#25A2E5;}
	.st5{fill:#027AD4;}
	.st6{fill:#54DAFF;}
</style>
<g>
	<path class="st0" d="M60.4,13.2h14.5v6.1h-4.2v20.6h-6.1V19.3h-4.1V13.2z"/>
	<path class="st0" d="M80.4,13.2h12.3v5.7h-6.2v4.9h5.4v5.5h-5.4v4.9h6.2v5.7H80.4V13.2z"/>
	<path class="st0" d="M99.2,13.2h6.1v20.5h4.8v6.2H99.2V13.2z"/>
	<path class="st0" d="M115.9,13.2h12.3v5.7H122v4.9h5.4v5.5H122v4.9h6.2v5.7h-12.3V13.2z"/>
	<path class="st0" d="M153.1,24.9v4.5c0,3.5-0.8,6.2-2.5,8.2c-1.7,2-4,3-6.9,3c-3.3,0-5.8-1.2-7.5-3.7c-1.8-2.4-2.7-5.9-2.7-10.5
		c0-4.6,0.9-8.1,2.7-10.4s4.4-3.6,7.8-3.6c3.8,0,6.6,2,8.3,6.1l-5.8,2.4c-0.5-0.9-0.9-1.5-1.3-1.9c-0.4-0.4-1-0.6-1.7-0.6
		c-1.2,0-2.1,0.6-2.6,1.9s-0.8,3.4-0.8,6.3c0,2.7,0.3,4.7,0.9,5.9c0.6,1.3,1.5,1.9,2.8,1.9c2,0,3.1-1.4,3.1-4.3h-2.8v-5.2H153.1z"/>
	<path class="st0" d="M159.3,13.2h7.1c2.9,0,5.1,0.7,6.8,2.2c1.7,1.5,2.5,3.5,2.5,6c0,1.3-0.3,2.5-0.9,3.8c-0.6,1.2-1.5,2.1-2.7,2.7
		l4.8,12.1h-6.4l-4.9-12.2h-0.1v12.2h-6.1V13.2z M165.3,18.3v6.3c2.7-0.1,4-1,4-2.8c0-1.2-0.3-2.1-0.9-2.7
		C167.8,18.7,166.8,18.4,165.3,18.3z"/>
	<path class="st0" d="M200.6,39.9h-6.3l-1-4.5h-6.4l-1.1,4.5h-6.2l7.1-26.7h6.8L200.6,39.9z M192.1,30.6c-0.9-4-1.6-7.8-2-11.4H190
		c-0.5,3.7-1.2,7.5-2,11.4H192.1z"/>
	<path class="st0" d="M205.4,13.2h12.3v5.7h-6.2v4.9h5.5v5.5h-5.5v10.6h-6.1V13.2z"/>
</g>
<linearGradient id="SVGID_1_" gradientUnits="userSpaceOnUse" x1="7.0005" y1="22.5327" x2="26.0005" y2="22.5327" gradientTransform="matrix(1 0 0 -1 0 54)">
	<stop  offset="0" style="stop-color:#1D59B3"/>
	<stop  offset="1" style="stop-color:#195BBC"/>
</linearGradient>
<path class="st1" d="M7.3,15C7.1,15.4,7,15.9,7,16.4v20.2c0,1.1,0.6,2.1,1.6,2.7l15.5,8.2c0.6,0.3,1.2,0.5,1.9,0.5v-23L7.3,15z"/>
<linearGradient id="SVGID_2_" gradientUnits="userSpaceOnUse" x1="26.0005" y1="22.5327" x2="45.0005" y2="22.5327" gradientTransform="matrix(1 0 0 -1 0 54)">
	<stop  offset="0" style="stop-color:#11408A"/>
	<stop  offset="1" style="stop-color:#103F8F"/>
</linearGradient>
<path class="st2" d="M26,24.9v23c0.6,0,1.3-0.2,1.9-0.5l15.5-8.2c1-0.5,1.6-1.5,1.6-2.7V16.4c0-0.5-0.1-0.9-0.3-1.3L26,24.9z"/>
<linearGradient id="SVGID_3_" gradientUnits="userSpaceOnUse" x1="7.3075" y1="38.6131" x2="44.6935" y2="38.6131" gradientTransform="matrix(1 0 0 -1 0 54)">
	<stop  offset="0" style="stop-color:#3079D6"/>
	<stop  offset="1" style="stop-color:#297CD2"/>
</linearGradient>
<path class="st3" d="M26,24.9L44.7,15c-0.3-0.6-0.8-1.1-1.4-1.4L27.7,6.3c-1.1-0.5-2.3-0.5-3.4,0L8.7,13.6c-0.6,0.3-1.1,0.8-1.4,1.4
	L26,24.9z"/>
<path class="st4" d="M15.2,19.2C15.1,19.4,15,19.7,15,20v11.7c0,0.6,0.4,1.2,0.9,1.5l9,4.7c0.3,0.2,0.7,0.3,1.1,0.3V24.9L15.2,19.2z
	"/>
<path class="st5" d="M26,24.9v13.3c0.4,0,0.7-0.1,1.1-0.3l9-4.7c0.6-0.3,0.9-0.9,0.9-1.5V20c0-0.3-0.1-0.5-0.2-0.8L26,24.9z"/>
<path class="st6" d="M26,24.9l10.8-5.7c-0.2-0.3-0.5-0.6-0.8-0.8l-9-4.3c-0.6-0.3-1.4-0.3-2,0l-9,4.3c-0.4,0.2-0.6,0.5-0.8,0.8
	L26,24.9z"/>
</svg>
